<?xml version="1.0" encoding="utf-8"?>
<!-- Generator: Adobe Illustrator 16.0.0, SVG Export Plug-In . SVG Version: 6.00 Build 0)  -->
<!DOCTYPE svg PUBLIC "-//W3C//DTD SVG 1.1//EN" "http://www.w3.org/Graphics/SVG/1.1/DTD/svg11.dtd">
<svg version="1.1" xmlns="http://www.w3.org/2000/svg" xmlns:xlink="http://www.w3.org/1999/xlink" x="0px" y="0px"
	 width="3953.209px" height="1606.2px" viewBox="0 0 3953.209 1606.2" enable-background="new 0 0 3953.209 1606.2"
	 xml:space="preserve">
<g id="Layer_1">
	
		<image overflow="visible" width="4128" height="3096" xlink:href="../../../../../../../../../../Downloads/20190301_085027.jpg"  transform="matrix(-1 0 0 -1 4028.2466 2283.7734)">
	</image>
	<circle fill="#124AA0" stroke="#5EA7DC" stroke-miterlimit="10" cx="763.243" cy="555.271" r="78"/>
	
		<text transform="matrix(1 0 0 1 751.3687 574.4844)" fill="#FFFFFF" stroke="#000000" stroke-miterlimit="10" font-family="'MyriadPro-Regular'" font-size="60">1</text>
	<circle fill="#124AA0" stroke="#5EA7DC" stroke-miterlimit="10" cx="1043.15" cy="1118.632" r="78"/>
	
		<text transform="matrix(1 0 0 1 1031.2759 1137.8447)" fill="#FFFFFF" stroke="#000000" stroke-miterlimit="10" font-family="'MyriadPro-Regular'" font-size="60">4</text>
	<circle fill="#124AA0" stroke="#5EA7DC" stroke-miterlimit="10" cx="315.369" cy="1606.2" r="78"/>
	
		<text transform="matrix(1 0 0 1 315.3687 1606.2002)" fill="#FFFFFF" stroke="#000000" stroke-miterlimit="10" font-family="'MyriadPro-Regular'" font-size="60">3</text>
	<circle fill="#124AA0" stroke="#5EA7DC" stroke-miterlimit="10" cx="1779.746" cy="1480.512" r="78"/>
	
		<text transform="matrix(1 0 0 1 1767.8711 1499.7256)" fill="#FFFFFF" stroke="#000000" stroke-miterlimit="10" font-family="'MyriadPro-Regular'" font-size="60">5</text>
	<circle fill="#124AA0" stroke="#5EA7DC" stroke-miterlimit="10" cx="3547.45" cy="1281.916" r="78"/>
	
		<text transform="matrix(1 0 0 1 3535.5747 1301.1299)" fill="#FFFFFF" stroke="#000000" stroke-miterlimit="10" font-family="'MyriadPro-Regular'" font-size="60">10</text>
	<circle fill="#124AA0" stroke="#5EA7DC" stroke-miterlimit="10" cx="2543.063" cy="1012.09" r="78"/>
	
		<text transform="matrix(1 0 0 1 2531.188 1031.3037)" fill="#FFFFFF" stroke="#000000" stroke-miterlimit="10" font-family="'MyriadPro-Regular'" font-size="60">9</text>
	<circle fill="#124AA0" stroke="#5EA7DC" stroke-miterlimit="10" cx="3130.516" cy="965.702" r="78"/>
	
		<text transform="matrix(1 0 0 1 3118.6411 984.915)" fill="#FFFFFF" stroke="#000000" stroke-miterlimit="10" font-family="'MyriadPro-Regular'" font-size="60">11</text>
	<circle fill="#124AA0" stroke="#5EA7DC" stroke-miterlimit="10" cx="2955.155" cy="588.431" r="78"/>
	
		<text transform="matrix(1 0 0 1 2943.2798 607.644)" fill="#FFFFFF" stroke="#000000" stroke-miterlimit="10" font-family="'MyriadPro-Regular'" font-size="60">12</text>
	<circle fill="#124AA0" stroke="#5EA7DC" stroke-miterlimit="10" cx="1701.746" cy="944.396" r="78"/>
	
		<text transform="matrix(1 0 0 1 1689.8711 963.6084)" fill="#FFFFFF" stroke="#000000" stroke-miterlimit="10" font-family="'MyriadPro-Regular'" font-size="60">8</text>
	<circle fill="#124AA0" stroke="#5EA7DC" stroke-miterlimit="10" cx="333.262" cy="2109.087" r="78"/>
	
		<text transform="matrix(1 0 0 1 321.3872 2128.2998)" fill="#FFFFFF" stroke="#000000" stroke-miterlimit="10" font-family="'MyriadPro-Regular'" font-size="60">7</text>
	<circle fill="#124AA0" stroke="#5EA7DC" stroke-miterlimit="10" cx="935.2" cy="1528.2" r="78"/>
	
		<text transform="matrix(1 0 0 1 923.3252 1547.4131)" fill="#FFFFFF" stroke="#000000" stroke-miterlimit="10" font-family="'MyriadPro-Regular'" font-size="60">6</text>
	<circle fill="#124AA0" stroke="#5EA7DC" stroke-miterlimit="10" cx="133.117" cy="944.987" r="78"/>
	
		<text transform="matrix(1 0 0 1 121.2427 964.2002)" fill="#FFFFFF" stroke="#000000" stroke-miterlimit="10" font-family="'MyriadPro-Regular'" font-size="60">2</text>
	<rect x="429.243" y="311.485" fill="#FFFFFF" stroke="#000000" stroke-miterlimit="10" width="708" height="149"/>
	<text transform="matrix(1 0 0 1 685.2427 407.4854)" font-family="'MyriadPro-Regular'" font-size="48">BIG DATA</text>
	<rect x="1347.746" y="685.232" fill="#FFFFFF" stroke="#000000" stroke-miterlimit="10" width="708" height="149"/>
	<text transform="matrix(1 0 0 1 1603.7451 781.2324)" font-family="'MyriadPro-Regular'" font-size="48">TRABAJO EN ALTURA</text>
	<rect x="2128.391" y="796.776" fill="#FFFFFF" stroke="#000000" stroke-miterlimit="10" width="708" height="149"/>
	<text transform="matrix(1 0 0 1 2384.3911 892.7764)" font-family="'MyriadPro-Regular'" font-size="48">VIDEO WALL</text>
	<rect x="2788.391" y="738.702" fill="#FFFFFF" stroke="#000000" stroke-miterlimit="10" width="708" height="149"/>
	<text transform="matrix(1 0 0 1 3044.3911 834.7021)" font-family="'MyriadPro-Regular'" font-size="48">VITRINA</text>
	<rect x="230.306" y="1380.098" fill="#FFFFFF" stroke="#000000" stroke-miterlimit="10" width="188.937" height="116.925"/>
	<text transform="matrix(1 0 0 1 291.2427 1449.4854)" font-family="'MyriadPro-Regular'" font-size="48">IOT</text>
	<rect x="809.357" y="891.201" fill="#FFFFFF" stroke="#000000" stroke-miterlimit="10" width="531.624" height="104.463"/>
	<text transform="matrix(1 0 0 1 992.9463 948.127)" font-family="'MyriadPro-Regular'" font-size="48">ESPECTRO</text>
	<rect x="1502.059" y="1298.049" fill="#FFFFFF" stroke="#000000" stroke-miterlimit="10" width="531.624" height="104.463"/>
	<text transform="matrix(1 0 0 1 1685.6479 1354.9746)" font-family="'MyriadPro-Regular'" font-size="48">ANTENAS</text>
	<rect x="77.934" y="1904.541" fill="#FFFFFF" stroke="#000000" stroke-miterlimit="10" width="531.624" height="104.463"/>
	<text transform="matrix(1 0 0 1 261.5225 1961.4668)" font-family="'MyriadPro-Regular'" font-size="48">ENLAZA2</text>
	<rect x="2812.768" y="385.985" fill="#FFFFFF" stroke="#000000" stroke-miterlimit="10" width="531.623" height="104.463"/>
	<text transform="matrix(1 0 0 1 2996.356 442.9111)" font-family="'MyriadPro-Regular'" font-size="48">MAQUETA</text>
	<rect x="668.173" y="1359.915" fill="#FFFFFF" width="534.054" height="85.193"/>
	<text transform="matrix(1 0 0 1 686.1748 1402.5117)" font-family="'MyriadPro-Regular'" font-size="48">CONEXIONES</text>
	<rect x="-55.91" y="768.62" fill="#FFFFFF" width="534.054" height="85.193"/>
	<text transform="matrix(1 0 0 1 -37.9082 811.2168)" font-family="'MyriadPro-Regular'" font-size="48">COMUNICADOS</text>
	<rect x="3469.45" y="1054.432" fill="#FFFFFF" stroke="#000000" stroke-miterlimit="10" width="558.797" height="149"/>
	<text transform="matrix(0.7893 0 0 1 3547.4497 1150.4316)" font-family="'MyriadPro-Regular'" font-size="48">ANIMACIONES DIGITALES</text>
</g>
<g id="Layer_2" display="none">
	<g id="base" display="inline">
		<path d="M3868.17,85.04v1539.579H85.039V85.04H3868.17 M3953.209,0H0v1709.657h3953.21V0L3953.209,0z"/>
	</g>
	
		<circle id="game_x5F_1" display="inline" fill="none" stroke="#000000" stroke-width="17.0079" stroke-miterlimit="10" cx="762.686" cy="584.962" r="94.513"/>
	
		<circle id="game_x5F_2" display="inline" fill="none" stroke="#000000" stroke-width="17.0079" stroke-miterlimit="10" cx="211.117" cy="965.702" r="94.513"/>
	
		<circle id="game_x5F_4" display="inline" fill="none" stroke="#000000" stroke-width="17.0079" stroke-miterlimit="10" cx="1121.15" cy="963.608" r="94.513"/>
	
		<circle id="game_x5F_3" display="inline" fill="none" stroke="#000000" stroke-width="17.0079" stroke-miterlimit="10" cx="324.774" cy="1558.511" r="94.513"/>
	
		<circle id="game_x5F_5" display="inline" fill="none" stroke="#000000" stroke-width="17.0079" stroke-miterlimit="10" cx="1767.871" cy="1480.512" r="94.513"/>
	
		<circle id="game_x5F_6" display="inline" fill="none" stroke="#000000" stroke-width="17.0079" stroke-miterlimit="10" cx="935.2" cy="1499.726" r="94.513"/>
	
		<circle id="game_x5F_7" display="inline" fill="none" stroke="#000000" stroke-width="17.0079" stroke-miterlimit="10" cx="333.262" cy="2109.087" r="94.513"/>
	
		<circle id="game_x5F_8" display="inline" fill="none" stroke="#000000" stroke-width="17.0079" stroke-miterlimit="10" cx="1718.259" cy="945.776" r="94.513"/>
	
		<circle id="game_x5F_9" display="inline" fill="none" stroke="#000000" stroke-width="17.0079" stroke-miterlimit="10" cx="2543.063" cy="1022.395" r="94.514"/>
	
		<circle id="game_x5F_10" display="inline" fill="none" stroke="#000000" stroke-width="17.0079" stroke-miterlimit="10" cx="3547.451" cy="1281.915" r="94.514"/>
	
		<circle id="game_x5F_11" display="inline" fill="none" stroke="#000000" stroke-width="17.0079" stroke-miterlimit="10" cx="3130.517" cy="965.702" r="94.514"/>
	
		<circle id="game_x5F_12" display="inline" fill="none" stroke="#000000" stroke-width="17.0079" stroke-miterlimit="10" cx="2955.155" cy="588.43" r="94.514"/>
</g>
</svg>
