<?xml version="1.0" encoding="utf-8"?>
<!-- Generator: Adobe Illustrator 16.0.0, SVG Export Plug-In . SVG Version: 6.00 Build 0)  -->
<!DOCTYPE svg PUBLIC "-//W3C//DTD SVG 1.1//EN" "http://www.w3.org/Graphics/SVG/1.1/DTD/svg11.dtd">
<svg version="1.1" xmlns="http://www.w3.org/2000/svg" xmlns:xlink="http://www.w3.org/1999/xlink" x="0px" y="0px" width="1920px"
	 height="1080px" viewBox="0 0 1920 1080" enable-background="new 0 0 1920 1080" xml:space="preserve">
<g id="GAMES">
	<rect id="game_x5F_1" x="494.055" y="147.86" width="24" height="24"/>
	<rect id="game_x5F_2" x="271.055" y="292.86" width="19" height="18"/>
	<rect id="game_x5F_3" x="1334.194" y="469.5" width="20" height="21"/>
	<rect id="game_x5F_4" x="491.962" y="356.771" width="19" height="19"/>
	<rect id="game_x5F_5" x="888.989" y="517.902" width="22" height="21"/>
	<rect id="game_x5F_6" x="435.738" y="532.971" width="18" height="19"/>
	<rect id="game_x5F_7" x="250.998" y="434.367" width="19" height="19"/>
	<rect id="game_x5F_8" x="821.371" y="277.476" width="21" height="21"/>
	<rect id="game_x5F_9" x="1238.144" y="325.261" width="28.038" height="28.038"/>
	<rect id="game_x5F_10" x="1592.003" y="467.823" width="24.354" height="24.354"/>
	<rect id="game_x5F_11" x="1437.556" y="306.993" width="21.132" height="21.132"/>
	<rect id="game_x5F_12" x="1405.785" y="154.497" width="24.809" height="24.809"/>
</g>
<g id="PLANTA">
	<path d="M1150.89,571.273c-1.196,0.083-2.403,0.128-3.62,0.128h3.62V571.273z"/>
	<path d="M1192.317,109.051H739.638v58.451h262.845c1.382-0.104,2.777-0.157,4.186-0.157c30.479,0,55.186,24.708,55.186,55.186
		h34.679c-0.075-1.654-0.119-3.317-0.119-4.992c0-55.658,41.916-101.519,95.903-107.757V109.051z"/>
	<path d="M1160.386,267.534v138.524c0,33.174,26.894,60.068,60.068,60.068h17.689v-24.288c-0.828,0.041-1.661,0.062-2.5,0.062
		c-27.365,0-49.55-22.185-49.55-49.55V276.646c0-27.366,22.185-49.55,49.55-49.55c0.838,0,1.671,0.021,2.5,0.062v-19.692h-17.689
		C1187.28,207.466,1160.386,234.359,1160.386,267.534z"/>
	<rect x="624.459" y="324.228" width="242.752" height="101.212"/>
	<path d="M1722.987,87.314h-924.55h-58.799h-5.086h-11.269h-29.421h-72.48h-24.159H293.937H163.35h-30.515v503.932h1673.221V87.314
		H1722.987z M1722.987,571.402h-627.309v0h51.591c-28.493,0-51.591-23.099-51.591-51.592c0-1.047,0.034-2.086,0.096-3.117h-0.096
		V324.228h-33.798v192.465h-0.097c0.062,1.031,0.097,2.071,0.097,3.117c0,28.494-23.099,51.592-51.591,51.592
		c-1.218,0-2.424-0.046-3.621-0.128v0.128H758.075c-17.049-6.518-29.158-23.026-29.158-42.366c0-1.417,0.068-2.817,0.195-4.2h-0.195
		v-36.248h-50.315v36.248h-1.096c0.127,1.383,0.196,2.783,0.196,4.2c0,19.339-12.109,35.848-29.158,42.366H237.941v-3.24
		c-0.607,0.044-1.219,0.075-1.838,0.075c-13.684,0-24.777-11.093-24.777-24.777c0-1.583,0.154-3.129,0.438-4.63h-1.1V428.612
		c-10.534,0-19.074-8.539-19.074-19.074V238.917c0-10.534,8.54-19.074,19.074-19.074V118.889H163.35v-9.838h130.587h283.869v0.731
		c3.629-0.479,7.331-0.731,11.091-0.731c46.05,0,83.426,37.118,83.857,83.067h21.108V109.05l0,0h29.421h75.154h786.862v11.513
		c0.409-0.01,0.818-0.016,1.228-0.016c30.147,0,54.586,24.439,54.586,54.586c0,0.053-0.001,0.104-0.001,0.157h32.364v-66.24h49.512
		V571.402z"/>
</g>
</svg>
