<?xml version="1.0" encoding="utf-8"?>
<!-- Generator: Adobe Illustrator 16.0.0, SVG Export Plug-In . SVG Version: 6.00 Build 0)  -->
<!DOCTYPE svg PUBLIC "-//W3C//DTD SVG 1.1//EN" "http://www.w3.org/Graphics/SVG/1.1/DTD/svg11.dtd">
<svg version="1.1" xmlns="http://www.w3.org/2000/svg" xmlns:xlink="http://www.w3.org/1999/xlink" x="0px" y="0px" width="1920px"
	 height="1080px" viewBox="0 0 1920 1080" enable-background="new 0 0 1920 1080" xml:space="preserve">
<g id="Layer_1" display="none">
	<circle display="inline" fill="#124AA0" stroke="#5EA7DC" stroke-miterlimit="10" cx="505.121" cy="219.995" r="28.039"/>
	
		<text transform="matrix(1 0 0 1 500.8521 226.9019)" display="inline" fill="#FFFFFF" stroke="#000000" stroke-miterlimit="10" font-family="'MyriadPro-Regular'" font-size="21.568">1</text>
	<circle display="inline" fill="#124AA0" stroke="#5EA7DC" stroke-miterlimit="10" cx="584.893" cy="602.727" r="28.038"/>
	
		<text transform="matrix(1 0 0 1 580.624 609.6328)" display="inline" fill="#FFFFFF" stroke="#000000" stroke-miterlimit="10" font-family="'MyriadPro-Regular'" font-size="21.568">4</text>
	<circle display="inline" fill="#124AA0" stroke="#5EA7DC" stroke-miterlimit="10" cx="344.125" cy="597.77" r="28.038"/>
	
		<text transform="matrix(1 0 0 1 344.1245 597.7695)" display="inline" fill="#FFFFFF" stroke="#000000" stroke-miterlimit="10" font-family="'MyriadPro-Regular'" font-size="21.568">3</text>
	<circle display="inline" fill="#124AA0" stroke="#5EA7DC" stroke-miterlimit="10" cx="580.624" cy="410.959" r="28.038"/>
	
		<text transform="matrix(1 0 0 1 576.3555 417.8652)" display="inline" fill="#FFFFFF" stroke="#000000" stroke-miterlimit="10" font-family="'MyriadPro-Regular'" font-size="21.568">5</text>
	<circle display="inline" fill="#124AA0" stroke="#5EA7DC" stroke-miterlimit="10" cx="1349.561" cy="366.993" r="28.038"/>
	
		<text transform="matrix(1 0 0 1 1345.292 373.8984)" display="inline" fill="#FFFFFF" stroke="#000000" stroke-miterlimit="10" font-family="'MyriadPro-Regular'" font-size="21.568">10</text>
	<circle display="inline" fill="#124AA0" stroke="#5EA7DC" stroke-miterlimit="10" cx="1494.353" cy="523.329" r="28.038"/>
	
		<text transform="matrix(1 0 0 1 1490.084 530.2349)" display="inline" fill="#FFFFFF" stroke="#000000" stroke-miterlimit="10" font-family="'MyriadPro-Regular'" font-size="21.568">9</text>
	<circle display="inline" fill="#124AA0" stroke="#5EA7DC" stroke-miterlimit="10" cx="1373.331" cy="213.962" r="28.038"/>
	
		<text transform="matrix(1 0 0 1 1369.0625 220.8682)" display="inline" fill="#FFFFFF" stroke="#000000" stroke-miterlimit="10" font-family="'MyriadPro-Regular'" font-size="21.568">11</text>
	<circle display="inline" fill="#124AA0" stroke="#5EA7DC" stroke-miterlimit="10" cx="691.953" cy="220.868" r="28.038"/>
	
		<text transform="matrix(1 0 0 1 687.6836 227.7749)" display="inline" fill="#FFFFFF" stroke="#000000" stroke-miterlimit="10" font-family="'MyriadPro-Regular'" font-size="21.568">12</text>
	<circle display="inline" fill="#124AA0" stroke="#5EA7DC" stroke-miterlimit="10" cx="1150.76" cy="367.609" r="28.038"/>
	
		<text transform="matrix(1 0 0 1 1146.4907 374.5151)" display="inline" fill="#FFFFFF" stroke="#000000" stroke-miterlimit="10" font-family="'MyriadPro-Regular'" font-size="21.568">8</text>
	<circle display="inline" fill="#124AA0" stroke="#5EA7DC" stroke-miterlimit="10" cx="828.102" cy="347.976" r="28.038"/>
	
		<text transform="matrix(1 0 0 1 823.8335 354.8828)" display="inline" fill="#FFFFFF" stroke="#000000" stroke-miterlimit="10" font-family="'MyriadPro-Regular'" font-size="21.568">7</text>
	<circle display="inline" fill="#124AA0" stroke="#5EA7DC" stroke-miterlimit="10" cx="882.613" cy="586.562" r="28.039"/>
	
		<text transform="matrix(1 0 0 1 878.3433 593.4688)" display="inline" fill="#FFFFFF" stroke="#000000" stroke-miterlimit="10" font-family="'MyriadPro-Regular'" font-size="21.568">6</text>
	<circle display="inline" fill="#124AA0" stroke="#5EA7DC" stroke-miterlimit="10" cx="278.611" cy="360.086" r="28.038"/>
	
		<text transform="matrix(1 0 0 1 274.3428 366.9912)" display="inline" fill="#FFFFFF" stroke="#000000" stroke-miterlimit="10" font-family="'MyriadPro-Regular'" font-size="21.568">2</text>
	
		<rect x="385.059" y="132.363" display="inline" fill="#FFFFFF" stroke="#000000" stroke-miterlimit="10" width="254.502" height="53.561"/>
	<text transform="matrix(1 0 0 1 477.082 166.8711)" display="inline" font-family="'MyriadPro-Regular'" font-size="17.2544">BIG DATA</text>
	
		<rect x="1023.509" y="274.448" display="inline" fill="#FFFFFF" stroke="#000000" stroke-miterlimit="10" width="254.502" height="53.561"/>
	<text transform="matrix(1 0 0 1 1115.5317 308.957)" display="inline" font-family="'MyriadPro-Regular'" font-size="17.2544">VIDEO WALL</text>
	
		<rect x="1345.292" y="445.931" display="inline" fill="#FFFFFF" stroke="#000000" stroke-miterlimit="10" width="254.502" height="53.561"/>
	<text transform="matrix(1 0 0 1 1437.3149 480.4395)" display="inline" font-family="'MyriadPro-Regular'" font-size="17.2544">TELEVISORES</text>
	
		<rect x="1250.348" y="132.363" display="inline" fill="#FFFFFF" stroke="#000000" stroke-miterlimit="10" width="254.502" height="53.561"/>
	<text transform="matrix(1 0 0 1 1342.3711 166.8711)" display="inline" font-family="'MyriadPro-Regular'" font-size="17.2544">MAPPING</text>
	
		<rect x="313.547" y="516.493" display="inline" fill="#FFFFFF" stroke="#000000" stroke-miterlimit="10" width="67.917" height="42.031"/>
	<text transform="matrix(1 0 0 1 335.4517 541.436)" display="inline" font-family="'MyriadPro-Regular'" font-size="17.2544">IOT</text>
	
		<rect x="500.852" y="520.973" display="inline" fill="#FFFFFF" stroke="#000000" stroke-miterlimit="10" width="191.101" height="37.551"/>
	<text transform="matrix(1 0 0 1 566.8457 541.4355)" display="inline" font-family="'MyriadPro-Regular'" font-size="17.2544">JUEGOS</text>
	
		<rect x="792.403" y="504.553" display="inline" fill="#FFFFFF" stroke="#000000" stroke-miterlimit="10" width="191.101" height="37.551"/>
	<text transform="matrix(1 0 0 1 858.3965 525.0156)" display="inline" font-family="'MyriadPro-Regular'" font-size="17.2544">ANTENAS</text>
	
		<rect x="736.32" y="274.448" display="inline" fill="#FFFFFF" stroke="#000000" stroke-miterlimit="10" width="191.101" height="37.551"/>
	<text transform="matrix(1 0 0 1 802.314 294.9111)" display="inline" font-family="'MyriadPro-Regular'" font-size="17.2544">OCULUS</text>
	
		<rect x="640.77" y="148.096" display="inline" fill="#FFFFFF" stroke="#000000" stroke-miterlimit="10" width="191.101" height="37.551"/>
	<text transform="matrix(1 0 0 1 706.7632 168.5586)" display="inline" font-family="'MyriadPro-Regular'" font-size="17.2544">OCULUS</text>
	<rect x="430.955" y="352.296" display="inline" fill="#FFFFFF" width="191.975" height="30.625"/>
	<text transform="matrix(1 0 0 1 437.4253 367.6079)" display="inline" font-family="'MyriadPro-Regular'" font-size="17.2544">ANTENAS INTERACTIVAS</text>
	
		<rect x="1321.523" y="285.219" display="inline" fill="#FFFFFF" stroke="#000000" stroke-miterlimit="10" width="200.869" height="53.561"/>
	
		<text transform="matrix(0.7893 0 0 1 1394.1528 319.7275)" display="inline" font-family="'MyriadPro-Regular'" font-size="17.2544">vitrina</text>
</g>
<g id="Layer_2" display="none">
	
		<image display="inline" overflow="visible" width="4128" height="3096" xlink:href="../../../../../../Downloads/20190301_085027.jpg"  transform="matrix(-1 0 0 -1 4373.0591 2856.1479)">
	</image>
</g>
<g id="planta" display="none">
	<g id="tabiques">
		<path display="inline" d="M601.719,2093.107c-32.288,0-58.462-26.175-58.462-58.463c0-3.735,0.365-7.384,1.035-10.925h-2.594
			v-260.061c-24.855,0-45.004-20.149-45.004-45.005v-402.585c0-24.855,20.149-45.005,45.004-45.005V1032.86H430.055v1067.715
			h111.642h64.358v-7.645C604.622,2093.036,603.179,2093.107,601.719,2093.107z"/>
		<path display="inline" d="M1764.525,2000.612c0-3.342,0.161-6.646,0.461-9.91h-0.461v-85.526h-118.718v85.526h-2.586
			c0.3,3.264,0.461,6.568,0.461,9.91c0,45.633-28.572,84.585-68.799,99.963h70.924h11.17h94.252h13.295h68.799
			C1793.097,2085.197,1764.525,2046.245,1764.525,2000.612z"/>
		<g display="inline">
			<path d="M2419.885,2100.575h8.542c-2.872,0-5.72-0.107-8.542-0.303V2100.575z"/>
			<path d="M2629.906,1978.842c0-2.47,0.082-4.921,0.228-7.354h-0.228v-454.126h-79.747v454.127h-0.228
				c0.146,2.434,0.228,4.885,0.228,7.354c0,67.23-54.503,121.731-121.731,121.731h121.731h79.747v-0.001h121.731
				C2684.409,2100.574,2629.906,2046.073,2629.906,1978.842z"/>
			<path d="M2751.637,2100.574h8.542v-0.303C2757.357,2100.466,2754.509,2100.574,2751.637,2100.574z"/>
		</g>
		<g display="inline">
			<path d="M1407.974,1011.372c8.563-1.132,17.296-1.725,26.169-1.725h-26.169V1011.372z"/>
			<path d="M1434.143,1009.647c108.658,0,196.847,87.58,197.863,195.998h49.805v-195.998H1434.143z"/>
		</g>
		<path display="inline" d="M1789.821,1011.372v137.915h620.189c3.26-0.245,6.553-0.371,9.875-0.371
			c71.914,0,130.212,58.298,130.212,130.212h81.824c-0.177-3.905-0.28-7.829-0.28-11.778c0-131.327,98.903-239.537,226.286-254.254
			v-1.724H1789.821z"/>
		<path display="inline" d="M3785.176,1009.647v27.164c0.964-0.021,1.93-0.037,2.898-0.037c71.132,0,128.797,57.665,128.797,128.797
			c0,0.124-0.004,0.246-0.005,0.369h76.364v-156.294H3785.176z"/>
		<path display="inline" d="M2843.244,1678.099v-273.008c0-64.569,52.345-116.914,116.914-116.914c1.978,0,3.943,0.051,5.897,0.147
			v-46.465h-41.738c-78.276,0-141.732,63.456-141.732,141.732v326.851c0,78.276,63.456,141.732,141.732,141.732h41.738v-57.309
			c-1.954,0.097-3.92,0.147-5.897,0.147C2895.588,1795.014,2843.244,1742.669,2843.244,1678.099z"/>
		<rect x="1518.055" y="1517.362" display="inline" width="572.779" height="238.813"/>
		<path display="inline" d="M4110.055,958.36H1928.558h-138.736h-12.001h-26.59h-69.419h-171.018h-57.005H738.181H430.055h-72
			v1189.037h3948V958.36H4110.055z M4110.055,2100.575h-3680V1009.647h308.126h943.63h69.419h177.328h2181.497V2100.575z"/>
	</g>
</g>
<g id="PLANTA">
	<g>
		<path d="M1150.89,631.273c-1.196,0.083-2.403,0.128-3.62,0.128h3.62V631.273z"/>
		<path d="M1192.317,169.051H739.638v58.451h262.845c1.382-0.104,2.777-0.157,4.186-0.157c30.479,0,55.186,24.708,55.186,55.186
			h34.679c-0.075-1.654-0.119-3.317-0.119-4.992c0-55.658,41.916-101.519,95.903-107.757V169.051z"/>
		<path d="M1160.386,327.534v138.524c0,33.174,26.894,60.068,60.068,60.068h17.689v-24.288c-0.828,0.041-1.661,0.062-2.5,0.062
			c-27.365,0-49.55-22.185-49.55-49.55V336.646c0-27.366,22.185-49.55,49.55-49.55c0.838,0,1.671,0.021,2.5,0.062v-19.692h-17.689
			C1187.28,267.466,1160.386,294.359,1160.386,327.534z"/>
		<rect x="624.459" y="384.228" width="242.752" height="101.212"/>
		<path d="M1722.987,147.314h-924.55h-58.799h-5.086h-11.269h-29.421h-72.48h-24.159H293.937H163.35h-30.515v503.932h1673.221
			V147.314H1722.987z M1722.987,631.402h-627.309v0h51.591c-28.493,0-51.591-23.099-51.591-51.592c0-1.047,0.034-2.086,0.096-3.117
			h-0.096V384.228h-33.798v192.465h-0.097c0.062,1.031,0.097,2.071,0.097,3.117c0,28.494-23.099,51.592-51.591,51.592
			c-1.218,0-2.424-0.046-3.621-0.128v0.128H758.075c-17.049-6.518-29.158-23.026-29.158-42.366c0-1.417,0.068-2.817,0.195-4.2
			h-0.195v-36.248h-50.315v36.248h-1.096c0.127,1.383,0.196,2.783,0.196,4.2c0,19.339-12.109,35.848-29.158,42.366H237.941v-3.24
			c-0.607,0.044-1.219,0.075-1.838,0.075c-13.684,0-24.777-11.093-24.777-24.777c0-1.583,0.154-3.129,0.438-4.63h-1.1V488.612
			c-10.534,0-19.074-8.539-19.074-19.074V298.917c0-10.534,8.54-19.074,19.074-19.074V178.889H163.35v-9.838h130.587h283.869v0.731
			c3.629-0.479,7.331-0.731,11.091-0.731c46.05,0,83.426,37.118,83.857,83.067h21.108V169.05l0,0h29.421h75.154h786.862v11.513
			c0.409-0.01,0.818-0.016,1.228-0.016c30.147,0,54.586,24.439,54.586,54.586c0,0.053-0.001,0.104-0.001,0.157h32.364v-66.24h49.512
			V631.402z"/>
	</g>
</g>
</svg>
